# xmcd CD database file
# Copyright (C) 1993-1998 Ti Kan
#
# Track frame offsets:
# 150
# 20417
# 40740
# 65697
# 87820
# 114622
# 131460
# 153760
# 177155
# 199945
# 225435
# 243322
# 264010
# 289602
# 312582
#
# Disc length: 4377 seconds
# Revision: 0
# Processed by: cddbd v1.4b41PL1 Copyright (c) Steve Scherf et al.
# Submitted via: CDSpectrumPro v3.3.331
#
DISCID=bf11170f
DTITLE=Times 3 - Times 3
DYEAR=1900
DGENRE=
TTITLE0=3 Bad Sistas
TTITLE1=Best of My Love
TTITLE2=Typical Realtionship
TTITLE3=Shine
TTITLE4=Don't Give Up
TTITLE5=Love Will Find Its Way
TTITLE6=Time to Get Loose
TTITLE7=Dance, Do Ya Wanna
TTITLE8=Good Lovin'
TTITLE9=Make Up Your Mind
TTITLE10=Until You
TTITLE11=Hip House (Everybody's Movin')
TTITLE12=Gentle Love
TTITLE13=Stay
TTITLE14=Only you
EXTD=
EXTT0=
EXTT1=
EXTT2=
EXTT3=
EXTT4=
EXTT5=
EXTT6=
EXTT7=
EXTT8=
EXTT9=
EXTT10=
EXTT11=
EXTT12=
EXTT13=
EXTT14=
PLAYORDER=
